<?xml version="1.0" standalone="no"?><!DOCTYPE svg PUBLIC "-//W3C//DTD SVG 1.1//EN" "http://www.w3.org/Graphics/SVG/1.1/DTD/svg11.dtd"><svg t="1728563902377" class="icon" viewBox="0 0 1024 1024" version="1.1" xmlns="http://www.w3.org/2000/svg" p-id="13323" xmlns:xlink="http://www.w3.org/1999/xlink" width="200" height="200"><path d="M658.285714 512q0 60.571429-42.857143 103.428571t-103.428571 42.857143-103.428571-42.857143-42.857143-103.428571 42.857143-103.428571 103.428571-42.857143 103.428571 42.857143 42.857143 103.428571zm-146.285714-310.857143q-84.571429 0-156 41.714286t-113.142857 113.142857-41.714286 156 41.714286 156 113.142857 113.142857 156 41.714286 156-41.714286 113.142857-113.142857 41.714286-156-41.714286-156-113.142857-113.142857-156-41.714286zm438.857143 310.857143q0 119.428571-58.857143 220.285714t-159.714286 159.714286-220.285714 58.857143-220.285714-58.857143-159.714286-159.714286-58.857143-220.285714 58.857143-220.285714 159.714286-159.714286 220.285714-58.857143 220.285714 58.857143 159.714286 159.714286 58.857143 220.285714z" p-id="13324" data-spm-anchor-id="a313x.search_index.0.i35.40673a81ewzyiV" class="selected" fill="#d81e06"></path></svg>