<?xml version="1.0" standalone="no"?><!DOCTYPE svg PUBLIC "-//W3C//DTD SVG 1.1//EN" "http://www.w3.org/Graphics/SVG/1.1/DTD/svg11.dtd"><svg t="1732793569531" class="icon" viewBox="0 0 1024 1024" version="1.1" xmlns="http://www.w3.org/2000/svg" p-id="8249" xmlns:xlink="http://www.w3.org/1999/xlink" width="200" height="200"><path d="M326.058667 558.933333v-0.128l0.256-1.152 1.066666-5.12a256.810667 256.810667 0 0 1 32.64-78.976c26.752-42.24 72.192-83.157333 151.978667-83.157333 79.786667 0 125.226667 40.96 151.978667 83.114667a256.853333 256.853333 0 0 1 33.706666 84.138666l0.213334 1.152 0.042666 0.170667v0.042667a27.733333 27.733333 0 0 0 54.784-8.661334L725.333333 554.666667l27.392-4.309334v-0.341333l-0.128-0.597333a295.893333 295.893333 0 0 0-8.362666-33.109334 312.405333 312.405333 0 0 0-33.408-72.490666C676.693333 390.016 615.509333 334.933333 512 334.933333c-103.466667 0-164.693333 55.04-198.826667 108.885334a312.32 312.32 0 0 0-41.728 105.6l-0.128 0.597333v0.298667c0 0.042667-0.042667 0.042667 27.349334 4.352l-27.392-4.266667a27.733333 27.733333 0 0 0 54.784 8.576m0 0.042667zM705.706667 366.122667a27.733333 27.733333 0 0 1 0-39.253334l90.538666-90.453333a27.733333 27.733333 0 1 1 39.210667 39.210667L744.96 366.08a27.733333 27.733333 0 0 1-39.253333 0zM512 283.733333a27.733333 27.733333 0 0 1-27.733333-27.733333V128a27.733333 27.733333 0 1 1 55.466666 0v128a27.733333 27.733333 0 0 1-27.733333 27.733333zM323.413333 366.08a27.733333 27.733333 0 0 1-39.210666 0l-90.453334-90.453333a27.733333 27.733333 0 0 1 39.168-39.253334l90.538667 90.538667a27.733333 27.733333 0 0 1 0 39.210667z" fill="#f28d00" p-id="8250"></path><path d="M57.6 554.666667a27.733333 27.733333 0 0 1 27.733333-27.733334h853.333334a27.733333 27.733333 0 1 1 0 55.466667H85.333333a27.733333 27.733333 0 0 1-27.733333-27.733333zM426.666667 682.666667a21.333333 21.333333 0 0 1 21.333333-21.333334h128a21.333333 21.333333 0 0 1 21.333333 21.333334v106.666666h42.666667a21.333333 21.333333 0 0 1 15.104 36.437334l-128 128a21.333333 21.333333 0 0 1-30.165333 0l-128-128A21.333333 21.333333 0 0 1 384 789.333333h42.666667V682.666667z m42.666666 21.333333V810.666667a21.333333 21.333333 0 0 1-21.333333 21.333333h-12.501333L512 908.501333l76.501333-76.501333H576a21.333333 21.333333 0 0 1-21.333333-21.333333v-106.666667h-85.333334z" fill="#f28d00" p-id="8251"></path></svg>