<?xml version="1.0" standalone="no"?><!DOCTYPE svg PUBLIC "-//W3C//DTD SVG 1.1//EN" "http://www.w3.org/Graphics/SVG/1.1/DTD/svg11.dtd"><svg t="1730194131306" class="icon" viewBox="0 0 1024 1024" version="1.1" xmlns="http://www.w3.org/2000/svg" p-id="5547" xmlns:xlink="http://www.w3.org/1999/xlink" width="200" height="200"><path d="M520.404 73.501c-1073.168 1209.76 1073.168 1209.76 0 0z" fill="#00D5E0" p-id="5548"></path><path d="M322.854 470.107c-2.634 0-5.394-0.627-8.028-1.756-9.407-4.39-13.42-15.553-9.03-24.96 14.298-30.354 31.106-61.837 50.296-93.696 5.394-8.905 16.933-11.79 25.838-6.397 8.906 5.394 11.79 16.933 6.397 25.839-18.438 30.73-34.743 61.083-48.415 90.308-3.136 6.648-9.91 10.662-17.058 10.662zM272.933 771.01c-8.404 0-15.93-5.644-18.187-14.048-6.272-23.58-9.407-49.168-9.658-75.759-0.377-47.537 8.78-99.59 27.343-154.904 3.261-9.909 13.923-15.177 23.832-11.916 9.908 3.261 15.176 13.923 11.915 23.832-17.183 51.425-25.713 99.34-25.336 142.737 0.125 23.581 3.01 45.907 8.403 66.478 2.634 10.034-3.386 20.32-13.42 22.953-1.631 0.376-3.262 0.627-4.892 0.627z" fill="#FFFFFF" p-id="5549"></path></svg>