<?xml version="1.0" standalone="no"?><!DOCTYPE svg PUBLIC "-//W3C//DTD SVG 1.1//EN" "http://www.w3.org/Graphics/SVG/1.1/DTD/svg11.dtd"><svg t="1732793466192" class="icon" viewBox="0 0 1024 1024" version="1.1" xmlns="http://www.w3.org/2000/svg" p-id="4278" xmlns:xlink="http://www.w3.org/1999/xlink" width="200" height="200"><path d="M429.4656 842.1888a218.3168 218.3168 0 0 1 171.4688 2.56l5.1712 2.2528a153.4976 153.4976 0 0 0 119.3984-2.2528 32.5632 32.5632 0 0 1 26.4704 59.5456 218.624 218.624 0 0 1-177.5104 0l-5.2224-2.2016a153.1904 153.1904 0 0 0-119.3984 2.2016l-6.0416 2.56a218.624 218.624 0 0 1-171.4176-2.56 32.5632 32.5632 0 0 1 26.4192-59.5456 153.4976 153.4976 0 0 0 124.6208 0l6.0416-2.56z m302.1312-135.7824a218.3168 218.3168 0 0 1 171.4688 2.56 32.5632 32.5632 0 1 1-26.5216 59.5456 153.1904 153.1904 0 0 0-124.5696 0l-6.0416 2.56a218.624 218.624 0 0 1-171.4688-2.56l-5.2224-2.2016a153.1904 153.1904 0 0 0-119.3984 2.2016l-6.0416 2.56a218.624 218.624 0 0 1-171.4688-2.56l-5.1712-2.2016a153.1904 153.1904 0 0 0-119.3984 2.2016 32.5632 32.5632 0 1 1-26.4704-59.5456 218.3168 218.3168 0 0 1 177.5104 0l5.2224 2.2016a153.4976 153.4976 0 0 0 119.3984-2.2016l6.0416-2.56a218.3168 218.3168 0 0 1 171.4688 2.56l5.1712 2.2016a153.4976 153.4976 0 0 0 119.3984-2.2016l6.0928-2.56z m-218.4704-398.848c133.5296 0 241.4592 110.9504 241.4592 247.296a32.5632 32.5632 0 0 1-65.1776 0c0-100.7616-79.1552-182.1184-176.2816-182.1184h-1.8944c-97.1264 0-176.2816 81.3568-176.2816 182.1184a32.5632 32.5632 0 0 1-65.1264 0c0-136.3456 107.8784-247.296 241.408-247.296h1.8944z m-336.64 209.8176a32.5632 32.5632 0 0 1 0 65.1776H92.5696a32.5632 32.5632 0 1 1 0-65.1776h83.968z m755.3024 0a32.5632 32.5632 0 0 1 0 65.1776h-83.968a32.5632 32.5632 0 0 1 0-65.1776h83.968z m-148.9408-284.16a32.5632 32.5632 0 1 1 46.08 46.08l-46.592 46.592a32.5632 32.5632 0 1 1-46.08-46.08l46.592-46.592zM195.4304 228.5568a32.5632 32.5632 0 0 1 46.08 0l46.592 46.592a32.5632 32.5632 0 0 1-46.08 46.08l-46.592-46.592a32.5632 32.5632 0 0 1 0-46.08z m316.7232-130.7648c18.0224 0 32.6144 14.592 32.6144 32.5632v83.968a32.5632 32.5632 0 1 1-65.1776 0v-83.968c0-17.9712 14.592-32.5632 32.5632-32.5632z" p-id="4279" fill="#f57969"></path></svg>