<?xml version="1.0" standalone="no"?><!DOCTYPE svg PUBLIC "-//W3C//DTD SVG 1.1//EN" "http://www.w3.org/Graphics/SVG/1.1/DTD/svg11.dtd"><svg t="1732793499351" class="icon" viewBox="0 0 1024 1024" version="1.1" xmlns="http://www.w3.org/2000/svg" p-id="5404" xmlns:xlink="http://www.w3.org/1999/xlink" width="200" height="200"><path d="M512 742.4a230.4 230.4 0 1 0 0-460.8 230.4 230.4 0 0 0 0 460.8z m0 51.2c-155.52 0-281.6-126.08-281.6-281.6S356.48 230.4 512 230.4s281.6 126.08 281.6 281.6-126.08 281.6-281.6 281.6zM537.6 179.2a25.6 25.6 0 0 1-51.2 0V102.4a25.6 25.6 0 0 1 51.2 0v76.8zM786.0992 277.1968a25.6 25.6 0 0 1-36.1984-36.1984l54.2976-54.2976a25.6 25.6 0 1 1 36.1984 36.1984l-54.272 54.2976zM240.9984 277.1968a25.6 25.6 0 1 0 36.1984-36.1984l-54.272-54.2976a25.6 25.6 0 1 0-36.224 36.1984l54.2976 54.2976z" fill="#ff0000" p-id="5405"></path><path d="M537.6 844.8a25.6 25.6 0 0 0-51.2 0v76.8a25.6 25.6 0 0 0 51.2 0v-76.8zM786.0992 746.8032a25.6 25.6 0 0 0-36.1984 36.1984l54.2976 54.2976a25.6 25.6 0 1 0 36.1984-36.1984l-54.272-54.2976zM240.9984 746.8032a25.6 25.6 0 1 1 36.1984 36.1984l-54.272 54.2976a25.6 25.6 0 0 1-36.224-36.1984l54.2976-54.2976z" fill="#ff0000" p-id="5406"></path><path d="M179.2 486.4a25.6 25.6 0 0 1 0 51.2H102.4a25.6 25.6 0 0 1 0-51.2h76.8zM947.2 486.4a25.6 25.6 0 0 1 0 51.2h-76.8a25.6 25.6 0 0 1 0-51.2h76.8z" fill="#ff0000" p-id="5407"></path></svg>