<?xml version="1.0" standalone="no"?><!DOCTYPE svg PUBLIC "-//W3C//DTD SVG 1.1//EN" "http://www.w3.org/Graphics/SVG/1.1/DTD/svg11.dtd"><svg t="1736165201494" class="icon" viewBox="0 0 1024 1024" version="1.1" xmlns="http://www.w3.org/2000/svg" p-id="4335" xmlns:xlink="http://www.w3.org/1999/xlink" width="200" height="200"><path d="M425.751273 882.711273a167.563636 167.563636 0 0 1-112.802909-43.636364h-86.109091a233.355636 233.355636 0 0 1-38.539637-462.219636 338.548364 338.548364 0 0 1 642.117819-9.751273 262.656 262.656 0 0 1-63.418182 515.607273z m-85.271273-174.545455a86.295273 86.295273 0 0 0 85.271273 87.296h341.061818a171.985455 171.985455 0 0 0 169.332364-154.903273 174.289455 174.289455 0 0 0-131.141819-189.835636 169.890909 169.890909 0 0 0-199.074909 111.918546l-20.061091 58.181818h-160.116363a86.272 86.272 0 0 0-85.271273 87.319272z m-71.586909-303.034182l-16.290909 49.058909-49.966546 8.727273a145.780364 145.780364 0 0 0 24.203637 288.907637H260.654545a178.827636 178.827636 0 0 1-5.376-43.659637 172.590545 172.590545 0 0 1 170.542546-174.545454h99.793454a257.582545 257.582545 0 0 1 208.267637-172.427637 253.672727 253.672727 0 0 0-464.942546 43.962182z" fill="#1296db" p-id="4336" data-spm-anchor-id="a313x.search_index.0.i0.6ab83a81V3Ggag" class=""></path></svg>