<?xml version="1.0" standalone="no"?><!DOCTYPE svg PUBLIC "-//W3C//DTD SVG 1.1//EN" "http://www.w3.org/Graphics/SVG/1.1/DTD/svg11.dtd"><svg t="1741081541533" class="icon" viewBox="0 0 1280 1024" version="1.1" xmlns="http://www.w3.org/2000/svg" p-id="1502" xmlns:xlink="http://www.w3.org/1999/xlink" width="250" height="200"><path d="M1280 496c0-167.6-136.4-304-304-304-28.8 0-56.8 5.4-84 13.4C836.4 120.6 741 64 632 64c-39.6 0-78.6 7.8-116.2 23.4C459.2 31.4 383.8 0 304 0 136.4 0 0 136.4 0 304c0 75.6 28.6 144 74.8 197C28.8 556.4 0 626.6 0 704c0 176.4 143.6 320 320 320h704c141.2 0 256-114.8 256-256 0-47.6-14-91.8-36.8-130.2 23-42.2 36.8-90.2 36.8-141.8z m-96 0c0 22.6-4.2 44.2-11 64.6-42-30.4-93.2-48.6-149-48.6-43.2 0-84.8 10.8-122.2 31.8C847.6 483 770.6 448 688 448c-48.2 0-94.6 12.2-136.8 35.4-13.8-14.6-29.2-27.2-45.4-38.8C537.4 389.6 596 352 664 352c31.2 0 61.6 8.4 90.4 25l35.4 20.2 25.8-31.6c40.2-49.2 98.6-77.6 160.4-77.6 114.6 0 208 93.4 208 208zM304 96c63.2 0 122.4 29.2 162.6 80l25.4 32.2 35.8-20C561.2 169.6 596.4 160 632 160c70.6 0 132.8 34.6 172.2 87.2-12.8 9-25.6 18.4-37 29.4C734 262.8 699.4 256 664 256c-105.6 0-196.6 59.2-244.2 145.8-32-10.8-65.4-17.8-99.8-17.8-64.6 0-124.6 19.6-175 52.6-30.4-36-49-82-49-132.6C96 189.4 189.4 96 304 96z m720 832H320c-123.6 0-224-100.4-224-224s100.4-224 224-224c72 0 140.2 35.4 182.4 94.8l29 40.8 39.6-30.8C605.6 558.2 646 544 688 544c66.2 0 126.8 34 162.4 90.8l29.2 46.8 42.2-35.4c20.8-17.4 55.2-38 102.2-38 88.2 0 160 71.8 160 160S1112.2 928 1024 928z" p-id="1503" data-spm-anchor-id="a313x.search_index.0.i0.24c23a81xVSPVX" class="selected" fill="#1296db"></path></svg>