<?xml version="1.0" standalone="no"?><!DOCTYPE svg PUBLIC "-//W3C//DTD SVG 1.1//EN" "http://www.w3.org/Graphics/SVG/1.1/DTD/svg11.dtd"><svg t="1732687368059" class="icon" viewBox="0 0 1024 1024" version="1.1" xmlns="http://www.w3.org/2000/svg" p-id="7204" xmlns:xlink="http://www.w3.org/1999/xlink" width="200" height="200"><path d="M1021.455731 609.225874c-9.438683-35.275078-45.481654-56.232154-80.516765-46.825466l-148.203321 39.77045-153.65856-89.331535 154.794401-89.987444 146.827513 39.4185c35.035112 9.406687 71.078082-11.566386 80.516766-46.825467s-11.32642-71.462029-46.361531-80.868716l-26.972237-7.230991a64.279031 64.279031 0 0 0 4.175417-70.262196 63.351161 63.351161 0 0 0-63.255174-31.403618l7.518951-28.092081c9.422685-35.25908-11.342417-71.478027-46.361531-80.884714-35.035112-9.406687-71.09408 11.550388-80.532763 46.825467l-39.882435 149.083198-153.914524 89.491513V222.111888l108.256895-108.992792a66.566712 66.566712 0 0 0 0-93.634935 65.446868 65.446868 0 0 0-92.995025 0L570.654632 39.817324a63.479143 63.479143 0 0 0-58.535832-39.194531 63.479143 63.479143 0 0 0-58.551831 39.194531l-20.20518-20.333163a65.446868 65.446868 0 0 0-92.995025 0 66.566712 66.566712 0 0 0 0 93.634935l108.256895 108.992792V402.118772l-154.314468-89.715482-39.626471-148.891225c-9.406687-35.323071-45.449658-56.280147-80.516765-46.809469-35.067107 9.454681-55.896201 45.753616-46.489514 81.06069l7.390969 27.80412a63.351161 63.351161 0 0 0-62.99921 31.435614 64.295029 64.295029 0 0 0 4.44738 70.66214l-27.612147 7.45496C13.836326 344.574801-6.97677 380.873736 2.413919 416.196808c9.406687 35.307074 45.465656 56.280147 80.532763 46.809468l147.867368-39.898433 154.314469 89.715482-154.074502 89.571502-147.85137-39.882435c-35.083105-9.470679-71.126076 11.502395-80.532763 46.809469-9.39069 35.323071 11.422406 71.638004 46.505511 81.076687l27.596149 7.45496a64.295029 64.295029 0 0 0-4.447379 70.66214 63.351161 63.351161 0 0 0 62.999209 31.451612l-7.390968 27.788122c-9.406687 35.307074 11.406408 71.622006 46.489513 81.06069 35.067107 9.470679 71.110078-11.486397 80.516765-46.809469l39.626471-148.891225 154.074502-89.571502v179.095011l-107.297029 108.320886a66.630703 66.630703 0 0 0 0 93.634935 65.142911 65.142911 0 0 0 92.73906 0l19.693252-19.885226a63.479143 63.479143 0 0 0 58.34386 38.762592 63.511138 63.511138 0 0 0 58.631819-39.482491l20.413151 20.605125a65.142911 65.142911 0 0 0 92.73906 0 66.662698 66.662698 0 0 0 0-93.634935l-108.304888-109.328746V623.559874l154.52244 89.827466 39.530484 147.739386c9.438683 35.25908 45.481654 56.232154 80.516765 46.825466s55.800214-45.625634 46.361531-80.884714l-7.262986-27.132214a63.399154 63.399154 0 0 0 62.519276-31.483607 64.279031 64.279031 0 0 0-4.639352-70.870111l27.932102-7.502954c35.051109-9.39069 55.816212-45.609636 46.377529-80.852718z" fill="#54BBFF" p-id="7205"></path></svg>