<?xml version="1.0" standalone="no"?><!DOCTYPE svg PUBLIC "-//W3C//DTD SVG 1.1//EN" "http://www.w3.org/Graphics/SVG/1.1/DTD/svg11.dtd"><svg t="1732786348843" class="icon" viewBox="0 0 1024 1024" version="1.1" xmlns="http://www.w3.org/2000/svg" p-id="8788" xmlns:xlink="http://www.w3.org/1999/xlink" width="200" height="200"><path d="M652.096 887.36l-36-20.736c1.088-6.24 1.92-12.608 1.92-19.264 0-6.624-0.832-12.992-2.016-19.264l36.096-20.8c16.832-9.824 22.592-31.456 12.928-48.192-9.76-16.96-31.328-22.752-48.256-12.992l-36.384 20.992c-9.76-8.288-20.736-14.784-32.992-19.2l0-41.792c0-19.552-15.872-35.36-35.36-35.36s-35.328 15.84-35.328 35.36l0 41.76c-12.256 4.384-23.296 10.944-33.056 19.264l-36.288-20.992c-16.96-9.76-38.592-4-48.32 12.96-9.76 16.832-3.872 38.496 12.992 48.256l35.904 20.736c-1.152 6.304-1.92 12.672-1.92 19.296 0 6.624 0.736 12.992 1.92 19.264L372 887.36c-16.928 9.76-22.752 31.488-12.992 48.384s31.392 22.624 48.256 12.864l36.32-20.864c9.76 8.256 20.8 14.752 33.088 19.136l0 41.888c0 19.488 15.84 35.232 35.328 35.232s35.36-15.744 35.36-35.232l0-41.888c12.256-4.384 23.392-10.88 33.056-19.264l36.32 20.992c16.928 9.76 38.496 4 48.256-12.864C674.752 918.88 668.992 897.248 652.096 887.36zM512 882.752c-19.488 0-35.36-15.872-35.36-35.36s15.872-35.296 35.36-35.296 35.328 15.776 35.328 35.296S531.488 882.752 512 882.752zM948.32 792.512l-24.16-6.432c-0.576-7.68-2.4-14.944-5.792-21.952l17.536-17.536c8.256-8.256 8.224-21.568 0-29.696-8.16-8.224-21.408-8.256-29.664 0l-17.568 17.504c-6.912-3.264-14.304-5.12-21.92-5.76l-6.432-24.128c-3.008-11.168-14.496-17.888-25.76-14.88-11.2 3.04-17.76 14.528-14.848 25.76l6.432 23.808c-3.168 2.176-6.176 4.576-8.992 7.328-2.752 2.848-5.088 5.824-7.264 8.928l-23.808-6.432c-11.2-3.008-22.784 3.744-25.792 14.88-3.008 11.264 3.744 22.72 14.848 25.76l24 6.464c0.672 7.552 2.592 14.912 5.952 21.92l-17.632 17.632c-8.16 8.224-8.128 21.472 0.096 29.632 8.16 8.16 21.408 8.256 29.568 0.096l17.664-17.664c6.912 3.424 14.336 5.344 22.016 5.92l6.336 24.032c3.072 11.2 14.496 17.888 25.76 14.88 11.168-3.008 17.92-14.496 14.912-25.824l-6.432-23.808c3.008-2.112 6.08-4.512 8.928-7.264 2.752-2.784 5.088-5.888 7.264-8.96l23.84 6.432c11.2 3.008 22.752-3.712 25.696-14.848C966.112 807.072 959.488 795.584 948.32 792.512zM876.64 805.888c-8.256 8.256-21.536 8.224-29.76 0-8.128-8.128-8.224-21.472 0-29.696 8.224-8.16 21.536-8.16 29.76 0C884.736 784.384 884.736 797.76 876.64 805.888zM237.888 684.992l-23.744 6.368c-2.208-3.008-4.512-6.048-7.296-8.864-2.816-2.752-5.824-5.12-8.96-7.264l6.368-23.872c3.008-11.2-3.68-22.752-14.752-25.696-11.264-3.008-22.752 3.68-25.76 14.848l-6.496 24.128c-7.616 0.608-14.912 2.496-21.888 5.792l-17.632-17.536c-8.256-8.256-21.504-8.224-29.664 0-8.224 8.224-8.224 21.504 0 29.696l17.536 17.536c-3.296 7.008-5.216 14.368-5.792 21.952l-24.096 6.432c-11.264 3.072-17.92 14.496-14.912 25.76 3.04 11.168 14.528 17.76 25.792 14.848l23.744-6.464c2.112 3.2 4.512 6.208 7.392 8.992 2.752 2.752 5.76 5.216 8.864 7.264l-6.368 23.808c-3.008 11.264 3.68 22.848 14.848 25.824 11.264 3.008 22.656-3.68 25.664-14.88l6.496-24c7.616-0.608 15.008-2.528 22.016-5.888l17.568 17.568c8.16 8.256 21.408 8.096 29.664-0.096 8.128-8.128 8.256-21.408 0-29.632l-17.632-17.632c3.36-6.912 5.376-14.368 5.888-22.016l24.128-6.368c11.136-3.04 17.792-14.496 14.784-25.76C260.672 688.736 249.184 682.08 237.888 684.992zM177.12 741.92c-8.224 8.224-21.504 8.224-29.76 0-8.128-8.16-8.128-21.536 0-29.664 8.256-8.16 21.536-8.16 29.76 0S185.248 733.76 177.12 741.92zM1024 352c0-123.488-100.512-224-224-224-10.624 0-21.12 0.736-31.584 2.24C708.672 48.832 614.368 0 512 0s-196.608 48.832-256.416 130.24C245.12 128.736 234.624 128 224 128 100.512 128 0 228.512 0 352s100.512 224 224 224c27.392 0 54.176-4.992 79.424-14.656C361.344 611.84 435.008 640 512 640c77.088 0 150.656-28.16 208.576-78.656C745.824 571.008 772.64 576 800 576 923.488 576 1024 475.488 1024 352zM708.128 482.656C661.184 539.264 591.264 576 512 576c-79.264 0-149.184-36.736-196.128-93.344C289.888 500.992 258.24 512 224 512c-88.384 0-160-71.616-160-160s71.616-160 160-160c21.632 0 42.112 4.416 60.864 12.16C327.328 121.344 412.576 64 512 64s184.672 57.344 227.072 140.16C757.888 196.416 778.432 192 800 192c88.384 0 160 71.616 160 160s-71.616 160-160 160C765.76 512 734.176 500.992 708.128 482.656z" fill="#1296db" p-id="8789"></path></svg>